# xmcd
#
# Track frame offsets:
#	150
#	18915
#	38510
#	54592
#	70282
#	86147
#	105022
#	122352
#	139225
#	150850
#
# Disc length: 2173 seconds
#
# Revision: 1
# Processed by: cddbd v1.5.2PL0 Copyright (c) Steve Scherf et al.
# Submitted via: audiograbber 1.83.01
#
DISCID=6d087b0a
DTITLE=Ervin Allen - Alaska Land Of The Midnight Sun
DYEAR=2008
DGENRE=Country
TTITLE0=Yoy're In My Memory
TTITLE1=I'm Homeward Bound
TTITLE2=Friends
TTITLE3=Basswood
TTITLE4=Alaska
TTITLE5=She Didn't Love Me
TTITLE6=Let's Make a Memory Tonight
TTITLE7=Green, Green Valley
TTITLE8=When the Whippoorwill Sings
TTITLE9=Did You Hear
EXTD=YEAR: 2007
EXTT0=
EXTT1=
EXTT2=
EXTT3=
EXTT4=
EXTT5=
EXTT6=
EXTT7=
EXTT8=
EXTT9=
PLAYORDER=
